<?xml version="1.0" encoding="utf-8"?>
<!-- Generator: Adobe Illustrator 23.0.3, SVG Export Plug-In . SVG Version: 6.00 Build 0)  -->
<svg version="1.1" id="Layer_1" xmlns="http://www.w3.org/2000/svg" xmlns:xlink="http://www.w3.org/1999/xlink" x="0px" y="0px"
	 viewBox="0 0 36 24" enable-background="new 0 0 36 24" xml:space="preserve">
<line fill="none" stroke="#263238" stroke-linecap="round" stroke-linejoin="round" stroke-miterlimit="10" x1="24.5" y1="14.9" x2="30" y2="20.4"/>
<path fill="none" stroke="#263238" stroke-linecap="round" stroke-linejoin="round" stroke-miterlimit="10" stroke-dasharray="2,1.5" d="
	M27.2,19.2c-1.1,1-3.9,0.9-5.9-0.1c-1.6-0.8-2.5-2-2.3-2.9"/>
<g>
	<g>
		<g>
			<path fill="#FAFAFA" d="M6.6,6.2c0-0.4,0.3-0.7,0.6-0.7l16.7-1.9c0.4,0,0.6,0.2,0.6,0.6v9.7c0,0.4-0.3,0.7-0.6,0.8L7.1,20.3
				c-0.3,0.1-0.6-0.1-0.6-0.4L6.6,6.2L6.6,6.2z"/>
			<path fill="none" stroke="#263238" stroke-linecap="round" stroke-linejoin="round" stroke-miterlimit="10" d="M6.5,6.2
				c0-0.4,0.4-0.7,0.7-0.7l16.7-1.9c0.4,0,0.6,0.2,0.6,0.6v9.7c0,0.4-0.3,0.7-0.6,0.8L7.1,20.3c-0.3,0.1-0.6-0.1-0.6-0.4L6.5,6.2
				L6.5,6.2z"/>
		</g>
	</g>
</g>
</svg>
