<?xml version="1.0" encoding="utf-8"?>
<!-- Generator: Adobe Illustrator 23.0.3, SVG Export Plug-In . SVG Version: 6.00 Build 0)  -->
<svg version="1.1" id="Layer_1" xmlns="http://www.w3.org/2000/svg" xmlns:xlink="http://www.w3.org/1999/xlink" x="0px" y="0px"
	 viewBox="0 0 64 64" enable-background="new 0 0 64 64" xml:space="preserve">
<path fill="#999999" d="M52.5,64h-41C5.2,64,0,58.8,0,52.5v-41C0,5.2,5.2,0,11.5,0h41C58.8,0,64,5.2,64,11.5v41
	C64,58.8,58.8,64,52.5,64z"/>
<g>
	<path fill="#F2F2F2" d="M5.4,24.3c0-1.9-0.6-2.4-2.2-2.4v-1.8h10.6v1.8c-1.6,0-2.2,0.4-2.2,2.4v15.9c0,5.6-3.6,7.8-9.4,8.6
		l-0.9-1.7c3.6-1.6,4.1-3,4.1-6.7V24.3z"/>
	<path fill="#F2F2F2" d="M31.4,33.3h-7.4v6.5c0,1.9,0.6,2.4,2.2,2.4v1.7H15.5v-1.7c1.6,0,2.2-0.4,2.2-2.4V24.3
		c0-1.9-0.6-2.4-2.2-2.4v-1.8h10.6v1.8c-1.6,0-2.2,0.4-2.2,2.4v6.1h7.4v-6.1c0-1.9-0.6-2.4-2.2-2.4v-1.8h10.6v1.8
		c-1.6,0-2.2,0.4-2.2,2.4v15.4c0,1.9,0.6,2.4,2.2,2.4v1.7H29.2v-1.7c1.6,0,2.2-0.4,2.2-2.4V33.3z"/>
	<path fill="#F2F2F2" d="M49.8,39.7c0,1.9,0.6,2.4,2.9,2.4v1.7H41.5v-1.7c1.6,0,2.2-0.4,2.2-2.4V24.3c0-1.9-0.6-2.4-2.2-2.4v-1.8
		h11.8c4.8,0,8.3,2,8.3,7.4C61.6,31,60,35,53,35h-3.1V39.7z M51.5,22.8h-1.7v9.3h1.8c2.4,0,3.3-1,3.3-4.7C54.9,24,54,22.8,51.5,22.8
		z"/>
</g>
</svg>
