<?xml version="1.0" encoding="utf-8"?>
<!-- Generator: Adobe Illustrator 23.0.3, SVG Export Plug-In . SVG Version: 6.00 Build 0)  -->
<svg version="1.1" id="Layer_1" xmlns="http://www.w3.org/2000/svg" xmlns:xlink="http://www.w3.org/1999/xlink" x="0px" y="0px"
	 viewBox="0 0 36 24" enable-background="new 0 0 36 24" xml:space="preserve">
<line fill="none" stroke="#263238" stroke-linecap="round" stroke-linejoin="round" stroke-miterlimit="10" x1="20.9" y1="16" x2="26.4" y2="21.5"/>
<g>
	<g>
		<g>
			<path fill="#FAFAFA" d="M3,7.3c0-0.4,0.3-0.7,0.6-0.7l16.7-1.9c0.4,0,0.6,0.2,0.6,0.6V15c0,0.4-0.3,0.7-0.6,0.8L3.5,21.4
				c-0.3,0.1-0.6-0.1-0.6-0.4L3,7.3L3,7.3z"/>
			<path fill="none" stroke="#263238" stroke-linecap="round" stroke-linejoin="round" stroke-miterlimit="10" d="M2.9,7.3
				c0-0.4,0.4-0.7,0.7-0.7l16.7-1.9c0.4,0,0.6,0.2,0.6,0.6V15c0,0.4-0.3,0.7-0.6,0.8L3.5,21.4c-0.3,0.1-0.6-0.1-0.6-0.4L2.9,7.3
				L2.9,7.3z"/>
		</g>
	</g>
</g>
<g>
	
		<circle fill="#F2F2F2" stroke="#FF0000" stroke-linecap="round" stroke-linejoin="round" stroke-miterlimit="10" cx="25.5" cy="7.5" r="5.5"/>
	
		<line fill="none" stroke="#FF0000" stroke-linecap="round" stroke-linejoin="round" stroke-miterlimit="10" x1="28.7" y1="7.5" x2="22.3" y2="7.5"/>
</g>
<path fill="none" stroke="#263238" stroke-linecap="round" stroke-linejoin="round" stroke-miterlimit="10" stroke-dasharray="2,2" d="
	M23.9,19.9c-1.1,2.1-4.3,2.9-6.7,2c-1.8-0.7-3.1-2.3-2.9-4"/>
</svg>
