<?xml version="1.0" encoding="utf-8"?>
<!-- Generator: Adobe Illustrator 23.0.3, SVG Export Plug-In . SVG Version: 6.00 Build 0)  -->
<svg version="1.1" id="Layer_1" xmlns="http://www.w3.org/2000/svg" xmlns:xlink="http://www.w3.org/1999/xlink" x="0px" y="0px"
	 viewBox="0 0 18 18" style="enable-background:new 0 0 18 18;" xml:space="preserve">
<style type="text/css">
	.st0{fill:none;stroke:#676470;stroke-linecap:round;stroke-linejoin:round;stroke-miterlimit:10;}
</style>
<polygon class="st0" points="0.6,8.4 1.4,8.3 5.5,7.8 7.7,8.4 12.3,8.9 14.6,8.4 14.6,16.1 9.7,16.1 7.3,14.7 4.4,16.1 0.6,16.1 
	0.6,11.4 "/>
<polyline class="st0" points="4.4,2.4 3.7,3.6 3,4.7 2.5,5.9 1.5,6.9 0.6,8.4 "/>
<line class="st0" x1="17.4" y1="11.4" x2="14.8" y2="16.1"/>
<line class="st0" x1="17.2" y1="3.7" x2="14.6" y2="8.4"/>
<path class="st0" d="M1.3,15.4c0.6-0.7,4.2-4.7,8.3-2.6c1.5,0.7,2.6,2,3.3,3.1"/>
<path class="st0" d="M0.8,12.4c0.7-0.5,4.9-3.6,9.6-2c1.7,0.6,3,1.5,3.8,2.3"/>
</svg>
